<svg width="1440" height="694" viewBox="0 0 1440 694" fill="none" xmlns="http://www.w3.org/2000/svg">
<path d="M1497.15 529.308C1477.85 534.488 1458.03 534.376 1432.83 530.238C1407.61 526.099 1377.04 517.939 1336.24 507.046L981.611 412.369C940.685 401.443 910.025 393.257 886.035 384.247C862.057 375.24 844.78 365.423 830.612 351.255C816.444 337.087 806.627 319.811 797.621 295.832C788.611 271.843 780.425 241.183 769.498 200.257L674.822 -154.374C663.929 -195.177 655.768 -225.745 651.629 -250.96C647.492 -276.164 647.38 -295.98 652.56 -315.279C657.741 -334.578 667.762 -351.674 683.965 -371.418C700.175 -391.171 722.546 -413.543 752.409 -443.405L1013.59 -704.591C1043.46 -734.454 1065.83 -756.825 1085.58 -773.035C1105.33 -789.238 1122.42 -799.26 1141.72 -804.44C1161.02 -809.621 1180.84 -809.508 1206.04 -805.371C1231.26 -801.232 1261.82 -793.072 1302.63 -782.178L1657.26 -687.502C1698.18 -676.575 1728.84 -668.389 1752.83 -659.379C1776.81 -650.373 1794.09 -640.556 1808.26 -626.388C1822.42 -612.22 1832.24 -594.944 1841.25 -570.965C1850.26 -546.976 1858.44 -516.316 1869.37 -475.389L1964.05 -120.758C1974.94 -79.9554 1983.1 -49.3877 1987.24 -24.1729C1991.38 1.03108 1991.49 20.8479 1986.31 40.1467C1981.13 59.4454 1971.11 76.542 1954.9 96.2858C1938.69 116.038 1916.32 138.41 1886.46 168.273L1625.27 429.459C1595.41 459.322 1573.04 481.693 1553.29 497.903C1533.54 514.106 1516.45 524.127 1497.15 529.308Z" stroke="url(#paint0_radial_12998_43289)"/>
<path d="M616.406 209.468C611.236 228.78 601.219 245.89 585.017 265.651C568.809 285.421 546.435 307.815 516.57 337.706L-97.1918 952.001C-127.1 981.936 -149.507 1004.36 -169.291 1020.61C-189.067 1036.85 -206.193 1046.88 -225.529 1052.07C-244.864 1057.25 -264.716 1057.12 -289.962 1052.94C-315.219 1048.76 -345.836 1040.55 -386.704 1029.58L-1225.39 804.461C-1266.2 793.507 -1296.77 785.301 -1320.69 776.284C-1344.6 767.271 -1361.83 757.462 -1375.96 743.322C-1390.1 729.183 -1399.9 711.949 -1408.9 688.033C-1417.91 664.107 -1426.1 633.531 -1437.04 592.717L-1662.38 -248.262C-1673.31 -289.076 -1681.51 -319.653 -1685.67 -344.877C-1689.83 -370.089 -1689.96 -389.915 -1684.79 -409.227C-1679.62 -428.538 -1669.6 -445.648 -1653.4 -465.41C-1637.19 -485.18 -1614.82 -507.573 -1584.95 -537.465L-971.191 -1151.76C-941.283 -1181.69 -918.876 -1204.12 -899.092 -1220.36C-879.316 -1236.6 -862.19 -1246.64 -842.854 -1251.82C-823.519 -1257.01 -803.667 -1256.87 -778.421 -1252.7C-753.164 -1248.52 -722.547 -1240.3 -681.679 -1229.33L157.002 -1004.22C197.812 -993.266 228.385 -985.059 252.307 -976.042C276.219 -967.03 293.448 -957.22 307.581 -943.081C321.714 -928.942 331.516 -911.708 340.519 -887.792C349.525 -863.866 357.719 -833.29 368.655 -792.475L593.995 48.503C604.931 89.3176 613.123 119.894 617.286 145.118C621.448 170.331 621.576 190.157 616.406 209.468Z" stroke="url(#paint1_radial_12998_43289)"/>
<path d="M1396.4 1282.92C1391.23 1302.23 1381.21 1319.34 1365.01 1339.1C1348.8 1358.87 1326.43 1381.27 1296.57 1411.16L1053.8 1654.13C1023.89 1684.07 1001.49 1706.49 981.701 1722.74C961.925 1738.98 944.798 1749.02 925.463 1754.2C906.127 1759.38 886.276 1759.25 861.03 1755.07C835.773 1750.89 805.156 1742.68 764.288 1731.71L432.558 1642.67C391.749 1631.71 361.176 1623.51 337.254 1614.49C313.342 1605.48 296.112 1595.67 281.979 1581.53C267.846 1567.39 258.044 1550.15 249.042 1526.24C240.035 1502.31 231.842 1471.74 220.906 1430.92L131.645 1097.8C120.709 1056.98 112.516 1026.41 108.353 1001.18C104.192 975.968 104.063 956.142 109.233 936.831C114.403 917.519 124.42 900.409 140.622 880.648C156.831 860.878 179.204 838.485 209.069 808.593L451.835 565.617C481.743 535.683 504.149 513.258 523.934 497.012C543.71 480.773 560.836 470.733 580.171 465.553C599.507 460.372 619.358 460.503 644.604 464.678C669.861 468.855 700.478 477.073 741.347 488.043L1073.08 577.083C1113.89 588.037 1144.46 596.244 1168.38 605.261C1192.29 614.274 1209.52 624.083 1223.65 638.223C1237.79 652.362 1247.59 669.596 1256.59 693.511C1265.6 717.438 1273.79 748.014 1284.73 788.828L1373.99 1121.95C1384.93 1162.77 1393.12 1193.34 1397.28 1218.57C1401.44 1243.78 1401.57 1263.61 1396.4 1282.92Z" stroke="url(#paint2_radial_12998_43289)"/>
<defs>
<radialGradient id="paint0_radial_12998_43289" cx="0" cy="0" r="1" gradientUnits="userSpaceOnUse" gradientTransform="translate(1711.58 -1162.93) rotate(107.43) scale(1937.43 2847.14)">
<stop stop-color="#FF4A01"/>
<stop offset="0.526421" stop-color="white"/>
<stop offset="1" stop-color="#FF4A01"/>
</radialGradient>
<radialGradient id="paint1_radial_12998_43289" cx="0" cy="0" r="1" gradientUnits="userSpaceOnUse" gradientTransform="translate(-1711.9 -1549.36) rotate(47.4041) scale(3296.22 4846.99)">
<stop stop-color="#FF4A01"/>
<stop offset="0.526421" stop-color="white"/>
<stop offset="1" stop-color="#FF4A01"/>
</radialGradient>
<radialGradient id="paint2_radial_12998_43289" cx="0" cy="0" r="1" gradientUnits="userSpaceOnUse" gradientTransform="translate(83.9504 286.661) rotate(47.4041) scale(1872.05 2752.79)">
<stop stop-color="#FF4A01"/>
<stop offset="0.526421" stop-color="white"/>
<stop offset="1" stop-color="#FF4A01"/>
</radialGradient>
</defs>
</svg>
